<?xml version="1.0" standalone="no"?>
<!DOCTYPE svg PUBLIC "-//W3C//DTD SVG 20010904//EN"
 "http://www.w3.org/TR/2001/REC-SVG-20010904/DTD/svg10.dtd">
<svg version="1.0" xmlns="http://www.w3.org/2000/svg"
 width="260.000000pt" height="260.000000pt" viewBox="0 0 260.000000 260.000000"
 preserveAspectRatio="xMidYMid meet">
<metadata>
Created by potrace 1.14, written by Peter Selinger 2001-2017
</metadata>
<g transform="translate(0.000000,260.000000) scale(0.100000,-0.100000)"
fill="#000000" stroke="none">
<path d="M1345 2561 c-6 -11 13 -26 22 -17 4 3 1 6 -6 6 -7 0 -9 5 -6 10 3 6
4 10 1 10 -3 0 -7 -4 -11 -9z"/>
<path d="M1426 2555 c-3 -10 0 -12 12 -9 14 5 14 4 3 -4 -15 -11 -44 -5 -36 7
2 4 -2 8 -10 8 -10 0 -11 -5 -4 -18 12 -23 11 -39 -1 -18 -5 9 -19 15 -32 14
-13 -1 -26 3 -30 9 -5 7 -8 3 -8 -9 0 -16 -2 -17 -9 -5 -6 8 -7 19 -4 25 4 5
-3 2 -15 -8 -15 -14 -31 -17 -56 -14 -20 3 -33 1 -30 -4 3 -5 0 -9 -6 -9 -6 0
-8 -5 -4 -12 5 -7 3 -8 -5 -4 -7 5 -10 15 -7 23 4 8 1 11 -5 7 -6 -3 -8 -16
-5 -28 5 -20 4 -20 -15 3 -21 26 -25 21 -7 -12 10 -19 9 -20 -4 -10 -8 7 -19
9 -23 5 -5 -4 -5 -2 -1 5 3 6 1 15 -5 19 -8 4 -9 3 -5 -4 4 -7 2 -12 -4 -12
-6 0 -9 -4 -5 -9 3 -5 0 -13 -6 -17 -7 -4 -9 -3 -6 2 3 6 2 16 -3 24 -7 11
-12 11 -23 2 -7 -7 -18 -8 -22 -4 -5 4 -5 2 -2 -4 4 -7 0 -15 -9 -18 -8 -3
-12 -2 -9 4 3 6 1 10 -4 10 -6 0 -11 -4 -11 -10 0 -5 -5 -10 -11 -10 -5 0 -7
6 -3 13 6 9 5 9 -8 0 -8 -7 -19 -9 -23 -5 -5 4 -6 2 -2 -3 3 -6 -6 -15 -19
-22 -13 -6 -22 -8 -19 -4 2 4 -2 8 -9 8 -8 0 -12 -6 -9 -14 3 -7 0 -13 -6 -13
-6 0 -11 5 -11 10 0 6 -5 10 -11 10 -5 0 -7 -4 -4 -10 3 -5 -2 -10 -12 -10
-10 0 -34 -13 -53 -29 -31 -26 -36 -27 -48 -12 -13 15 -13 15 -8 -1 3 -12 0
-16 -14 -13 -11 2 -24 -4 -29 -13 -5 -9 -13 -16 -18 -16 -4 1 -7 -2 -5 -7 1
-5 -3 -9 -9 -9 -6 0 -9 7 -6 15 4 8 2 17 -2 20 -12 7 -23 -24 -14 -37 3 -7 1
-8 -5 -4 -7 4 -12 1 -12 -6 0 -9 -3 -9 -8 -2 -8 13 -54 26 -47 14 7 -12 -30
-31 -41 -22 -5 4 -2 -1 5 -10 7 -10 12 -18 10 -19 -40 -8 -49 -7 -49 4 0 6 -5
4 -11 -6 -5 -9 -8 -21 -5 -26 3 -4 -7 -6 -22 -4 -21 4 -24 2 -12 -6 13 -9 13
-11 -2 -11 -10 0 -18 -6 -18 -12 0 -9 -4 -8 -10 2 -8 12 -10 10 -10 -8 0 -13
-4 -21 -10 -17 -5 3 -7 12 -3 21 3 8 -13 -3 -35 -25 -22 -22 -43 -37 -46 -34
-3 3 -4 -4 -1 -16 2 -14 -1 -21 -11 -21 -8 0 -12 -4 -9 -10 3 -5 1 -10 -5 -10
-6 0 -8 -5 -4 -11 5 -8 1 -8 -14 0 -17 9 -19 8 -15 -9 3 -12 0 -20 -6 -20 -7
0 -9 5 -5 13 5 8 3 8 -9 -2 -9 -7 -15 -17 -12 -21 3 -5 0 -12 -6 -15 -5 -4 -8
-14 -5 -22 4 -9 2 -11 -6 -7 -8 5 -9 2 -5 -9 3 -10 2 -17 -3 -17 -5 0 -7 -6
-4 -13 3 -8 -2 -20 -10 -27 -9 -7 -13 -16 -10 -21 3 -5 -3 -6 -12 -2 -13 5
-15 3 -9 -7 6 -10 4 -12 -7 -8 -11 5 -14 0 -12 -17 1 -13 5 -29 10 -36 4 -7 3
-9 -4 -5 -14 8 -54 -34 -48 -51 3 -6 1 -14 -5 -17 -5 -2 -4 -3 3 -2 7 2 12 11
10 21 -3 14 -1 15 11 4 12 -11 12 -16 0 -27 -7 -7 -13 -18 -13 -23 0 -6 -4 -8
-9 -5 -4 3 -6 -6 -3 -21 3 -17 1 -24 -6 -19 -6 3 -14 1 -18 -5 -4 -8 -3 -9 4
-5 7 4 12 3 12 -3 0 -6 8 -8 17 -4 15 5 14 3 -2 -10 -12 -10 -15 -16 -7 -17
10 0 10 -3 0 -14 -7 -8 -17 -13 -22 -13 -16 3 -14 -33 2 -43 14 -9 14 -10 -4
-5 -18 5 -21 1 -20 -22 0 -16 5 -31 11 -35 6 -5 6 -8 -1 -8 -7 0 -15 -7 -18
-16 -5 -14 -4 -15 8 -5 12 10 15 9 13 -8 0 -11 -5 -17 -11 -14 -5 4 -7 -3 -4
-15 5 -16 2 -20 -13 -17 -11 2 -17 0 -14 -6 4 -5 10 -7 15 -4 4 3 10 -5 13
-16 5 -17 2 -20 -14 -16 -10 3 -17 1 -13 -4 3 -5 15 -10 27 -10 20 -1 20 -2 2
-6 -11 -3 -24 -9 -30 -15 -6 -6 -4 -7 7 -3 12 5 16 2 14 -12 -2 -10 1 -23 6
-30 5 -7 5 -14 -2 -18 -6 -3 -7 -11 -4 -17 4 -7 2 -8 -4 -4 -7 4 -12 1 -12 -9
0 -9 5 -13 10 -10 6 3 10 1 10 -5 0 -6 -10 -9 -23 -6 -21 4 -22 1 -23 -60 0
-35 3 -64 8 -64 5 0 6 5 2 12 -5 7 -3 8 6 3 11 -7 10 -10 -2 -19 -17 -13 -21
-85 -5 -105 9 -12 9 -13 0 -8 -9 6 -12 -2 -11 -28 1 -19 6 -35 12 -35 6 0 5
-4 -2 -9 -17 -10 -12 -39 10 -66 10 -11 17 -24 17 -29 0 -5 5 -13 13 -17 10
-7 10 -9 1 -9 -7 0 -13 -5 -13 -11 0 -5 5 -7 12 -3 7 4 8 3 4 -5 -4 -6 -11 -9
-15 -7 -4 3 -8 -2 -8 -10 0 -8 6 -13 13 -10 6 2 14 -4 17 -15 5 -17 3 -18 -9
-8 -12 10 -13 9 -8 -5 3 -9 10 -16 15 -16 4 0 6 -7 3 -15 -4 -8 -11 -12 -17
-8 -6 3 -7 1 -3 -6 6 -9 11 -9 21 -1 11 9 13 6 11 -14 -2 -14 2 -24 8 -23 6 1
10 -6 8 -17 -2 -12 1 -16 9 -10 9 5 10 2 5 -11 -6 -16 -4 -16 11 -4 9 8 14 9
10 2 -4 -6 -1 -13 5 -16 10 -3 10 -7 -1 -21 -12 -14 -12 -16 0 -11 19 6 47
-12 34 -22 -6 -5 -1 -17 14 -32 15 -15 22 -18 18 -7 -4 9 -3 16 2 16 4 0 12
-15 18 -33 5 -17 9 -24 7 -15 -1 10 3 21 8 25 7 3 8 1 4 -5 -4 -7 -2 -12 4
-12 7 0 10 -6 7 -14 -9 -22 30 -66 50 -59 12 5 14 3 8 -7 -6 -10 -4 -12 8 -7
13 5 17 1 18 -16 1 -12 1 -26 0 -30 -1 -5 3 -6 8 -2 6 3 7 13 4 22 -6 15 -5
16 9 3 12 -12 13 -18 4 -29 -8 -12 -8 -13 1 -7 8 4 13 2 13 -4 0 -6 4 -9 9 -5
5 3 12 1 16 -5 4 -6 11 -7 17 -4 5 4 4 -4 -3 -17 -11 -22 -11 -23 4 -10 12 9
17 10 17 2 0 -7 5 -9 12 -5 8 5 9 0 5 -17 -6 -23 -6 -24 10 -4 15 20 15 20 11
-1 -4 -17 -2 -20 13 -17 11 3 21 -1 25 -11 8 -22 25 -20 18 1 -5 15 -4 15 4 3
7 -9 7 -19 2 -25 -7 -8 -5 -12 5 -12 8 0 15 4 15 9 0 5 4 7 10 3 5 -3 7 -13 4
-23 -5 -15 -4 -15 6 1 15 23 33 12 21 -12 -7 -13 -6 -18 4 -18 8 0 12 4 9 9
-3 4 2 8 11 8 11 0 15 -5 12 -15 -4 -8 -1 -17 5 -21 7 -4 8 -3 4 4 -4 7 -3 12
3 12 5 0 12 -6 14 -12 4 -10 6 -10 6 -1 1 7 8 10 16 7 14 -6 13 -8 -2 -21 -17
-13 -16 -13 4 -4 31 16 43 13 36 -6 -6 -15 -5 -16 9 -3 8 8 13 22 10 30 -3 8
-2 12 2 9 4 -4 9 -17 11 -29 2 -12 7 -25 10 -28 10 -11 50 -9 57 2 5 7 8 4 8
-6 0 -10 4 -18 10 -18 5 0 7 6 4 14 -3 8 0 17 7 22 7 4 10 3 5 -4 -3 -6 0 -17
8 -25 8 -8 12 -18 8 -22 -4 -4 3 -3 15 4 12 6 23 15 25 20 1 5 10 2 18 -7 13
-14 12 -15 -3 -9 -9 3 -17 3 -17 -2 0 -5 9 -11 20 -14 11 -3 18 -1 15 3 -3 5
-1 11 5 15 5 3 10 1 10 -4 0 -6 9 -11 19 -11 11 0 22 -6 25 -12 3 -7 3 -3 1 9
-3 12 -1 24 4 28 7 4 8 -1 4 -11 -4 -12 -3 -15 5 -10 8 4 10 2 6 -7 -6 -17 22
-31 32 -15 4 7 3 8 -4 4 -7 -4 -12 -2 -12 3 0 12 23 15 33 4 4 -3 1 -13 -5
-22 -10 -12 -8 -12 8 1 16 14 23 15 33 5 11 -10 12 -7 7 13 -3 14 -3 19 0 12
3 -6 11 -9 17 -5 6 4 8 0 4 -10 -4 -12 -2 -14 10 -10 12 5 14 3 8 -7 -5 -8 -4
-11 3 -6 6 4 9 13 6 20 -3 8 0 17 7 22 8 5 10 3 5 -5 -5 -8 0 -14 13 -18 12
-3 18 -10 14 -17 -3 -6 3 -3 15 7 22 20 68 15 56 -5 -4 -7 -2 -8 4 -4 6 4 9
13 6 20 -3 8 1 17 8 22 7 4 10 4 6 -1 -11 -12 11 -35 28 -28 7 3 11 10 7 16
-3 5 -1 7 5 3 6 -3 13 -2 17 4 3 5 12 10 18 10 8 0 8 -3 -2 -9 -8 -5 -9 -11
-3 -15 6 -3 13 -2 16 3 3 5 15 7 26 4 16 -4 19 -2 14 13 -5 15 -4 16 4 5 9
-13 13 -13 28 0 10 8 15 9 11 2 -4 -6 -3 -14 3 -18 5 -3 10 2 10 12 0 15 2 15
9 4 14 -22 53 -21 59 1 2 10 11 18 19 18 8 0 11 5 7 13 -5 9 -4 9 6 0 7 -6 20
-9 29 -6 13 5 14 3 4 -8 -7 -7 -13 -18 -13 -23 0 -6 5 -3 11 7 6 9 15 15 21
11 7 -4 8 2 3 17 -7 23 -7 24 9 4 14 -18 15 -18 16 -2 0 9 5 17 11 17 6 0 9
-7 6 -15 -10 -23 7 -25 33 -4 20 16 20 18 4 10 -15 -7 -21 -7 -21 3 0 7 5 13
11 13 34 -1 47 4 40 15 -4 7 -3 8 5 4 9 -6 9 -11 -1 -24 -12 -14 -10 -14 12
-2 14 7 27 12 29 10 2 -2 15 7 28 20 20 19 22 19 16 4 -6 -17 -5 -17 10 -5 9
7 15 16 13 20 -2 3 12 7 31 8 20 1 41 7 47 14 8 9 8 10 -1 5 -6 -3 -15 -1 -19
6 -4 7 -4 10 1 6 4 -4 15 -2 23 5 10 8 13 8 9 1 -4 -7 0 -14 8 -18 8 -3 14 -2
14 2 -3 21 3 24 16 6 13 -18 14 -17 9 11 -3 22 -2 26 6 15 8 -13 12 -12 25 7
9 13 23 20 35 18 11 -2 20 1 20 6 0 6 9 7 20 4 21 -7 28 10 8 18 -7 3 -3 4 9
4 12 -1 20 -4 17 -8 -2 -4 1 -11 7 -15 7 -4 9 -3 5 4 -3 5 0 13 6 15 10 4 10
6 1 6 -16 1 -17 31 -2 31 5 0 7 -4 4 -10 -4 -6 6 -9 26 -6 20 2 33 9 35 19 2
15 0 15 -20 2 -20 -13 -23 -13 -23 0 0 8 4 12 9 9 5 -3 15 -1 23 6 9 7 15 8
20 0 3 -5 11 -10 17 -10 6 0 1 9 -12 20 -13 11 -19 20 -14 20 6 0 16 -6 23
-13 11 -10 13 -9 8 5 -4 12 -2 15 8 11 8 -3 12 -10 8 -16 -3 -6 -1 -7 6 -3 8
6 9 11 2 20 -8 9 -6 18 8 30 14 13 21 14 27 5 5 -8 3 -10 -6 -4 -9 5 -11 4 -6
-4 10 -16 26 -4 19 14 -4 11 0 14 13 9 16 -6 17 -5 7 7 -16 16 -17 29 -2 29 5
0 8 -4 5 -9 -3 -5 0 -11 8 -14 10 -4 12 0 9 14 -3 11 0 19 6 19 7 0 9 -5 5
-12 -5 -9 -2 -9 9 1 18 15 23 26 7 16 -6 -3 -10 -1 -10 4 0 10 14 15 33 12 4
-1 3 7 -2 17 -13 25 17 69 43 64 19 -4 19 -3 2 13 -12 12 -14 21 -6 29 5 7 8
16 5 19 -3 4 -2 5 2 2 3 -3 19 9 34 26 26 29 30 52 14 96 -2 7 0 15 5 18 6 4
10 15 10 26 0 11 5 17 10 14 6 -4 9 9 6 34 -3 36 -2 39 14 31 14 -8 17 -5 16
13 0 12 -7 26 -13 30 -10 6 -10 12 -1 27 7 10 15 17 19 14 4 -2 11 1 15 7 5 8
3 9 -5 4 -9 -5 -11 1 -8 24 3 18 1 29 -4 25 -5 -3 -7 -10 -4 -15 4 -5 1 -9 -4
-9 -15 0 -14 13 1 28 10 10 10 17 -1 35 -13 21 -13 21 4 7 17 -14 18 -13 11 5
-16 38 -17 60 -2 27 8 -17 18 -32 21 -32 3 0 3 5 0 11 -4 5 1 20 12 32 l18 22
-22 -19 c-13 -11 -23 -14 -23 -8 0 6 8 17 18 24 13 10 18 27 18 68 0 30 -5 58
-11 62 -6 5 -6 8 3 8 6 0 12 7 12 15 0 8 -5 15 -11 15 -5 0 -7 -5 -3 -12 5 -7
3 -8 -6 -3 -10 6 -10 10 3 19 11 9 15 28 15 69 -1 41 -4 54 -12 48 -8 -7 -12
-4 -12 8 0 10 5 17 12 14 6 -2 11 10 12 32 1 21 -3 35 -11 35 -8 0 -8 3 2 9 9
6 10 11 2 15 -6 4 -11 13 -11 19 0 8 3 8 9 -1 5 -8 8 4 7 31 -1 29 -5 43 -13
40 -12 -5 -12 -21 0 -39 4 -7 0 -14 -8 -18 -8 -3 -17 0 -21 6 -4 7 -3 8 4 4
13 -8 17 6 5 18 -9 9 -13 37 -5 32 4 -2 16 6 27 17 l20 20 -22 -12 c-33 -17
-35 -15 -32 34 2 24 -1 48 -6 52 -4 4 -6 3 -2 -2 3 -6 1 -17 -4 -25 -7 -12 -8
-11 -6 5 1 11 7 26 11 34 7 11 5 13 -6 9 -8 -4 -21 -2 -29 4 -11 8 -10 9 5 4
14 -5 17 -2 12 10 -3 8 -6 20 -6 25 0 4 -6 6 -13 3 -8 -3 -14 2 -14 10 0 8 4
13 9 10 4 -3 8 0 8 5 0 6 -7 11 -16 11 -13 0 -14 3 -5 14 8 10 9 16 1 21 -6 3
-7 11 -4 17 4 7 2 8 -5 4 -9 -6 -9 -11 0 -22 7 -8 7 -14 1 -14 -13 0 -20 19
-17 47 1 13 0 21 -3 18 -2 -2 -11 3 -19 11 -8 8 -19 11 -25 8 -7 -4 -8 -2 -4
5 4 6 12 8 18 5 7 -5 8 -2 4 5 -5 7 -14 10 -21 7 -19 -7 -27 5 -13 21 15 19
-36 74 -61 65 -14 -5 -14 -4 -1 13 9 11 10 16 3 11 -8 -4 -13 -2 -13 4 0 7 -7
10 -14 7 -10 -4 -13 -1 -9 8 3 8 10 12 16 8 6 -3 7 -1 3 6 -6 9 -11 9 -24 -1
-13 -11 -14 -11 -10 2 8 23 -51 93 -74 87 -16 -5 -17 -3 -7 9 6 8 9 17 5 21
-3 3 -6 0 -6 -7 0 -9 -9 -5 -24 9 -14 13 -29 21 -34 17 -5 -3 -9 1 -9 9 0 15
11 11 39 -12 13 -12 17 -12 24 -1 4 7 4 10 -1 6 -4 -4 -19 2 -33 12 -13 11
-34 20 -46 21 -11 0 -15 3 -8 6 6 2 12 9 12 14 0 4 -7 6 -15 3 -11 -5 -13 -2
-9 11 6 15 4 16 -17 5 -22 -12 -23 -12 -10 4 12 15 12 17 0 14 -8 -2 -13 3
-11 10 1 8 -2 11 -8 7 -5 -3 -10 -1 -10 6 0 7 -3 9 -7 5 -4 -3 -13 4 -21 16
-7 13 -11 15 -8 6 3 -10 0 -20 -6 -24 -7 -4 -8 -3 -4 4 4 7 2 12 -3 12 -15 0
-14 27 2 33 9 4 9 6 0 6 -6 1 -15 -4 -18 -10 -5 -6 -12 -4 -22 8 -8 10 -12 13
-9 6 4 -6 1 -15 -5 -19 -8 -4 -9 -3 -5 4 4 7 2 12 -4 12 -6 0 -8 5 -5 10 9 14
-9 12 -24 -2 -10 -11 -11 -10 -6 4 4 9 2 25 -4 35 -6 10 -11 13 -11 7 0 -7 -6
-14 -14 -17 -10 -4 -12 1 -9 16 3 13 1 18 -4 11 -4 -6 -17 -14 -28 -17 -19 -7
-19 -6 -2 7 10 8 14 17 8 20 -5 3 -12 0 -14 -6 -4 -10 -8 -9 -17 2 -10 13 -11
13 -6 -2 3 -10 1 -20 -5 -23 -5 -4 -9 -3 -8 2 1 4 1 17 -1 28 l-1 20 -9 -20
c-5 -11 -9 -14 -9 -7 -1 6 -10 12 -22 12 -16 0 -19 4 -14 23 4 15 3 18 -3 9
-11 -16 -10 -16 -46 -2 -26 9 -28 9 -16 -5 11 -13 10 -14 -4 -9 -9 3 -16 10
-16 15 0 5 -5 9 -11 9 -5 0 -7 -6 -4 -12 4 -7 0 -5 -7 4 -13 15 -15 15 -25 0
-11 -15 -12 -15 -12 2 -1 20 -1 20 -15 0 -8 -10 -18 -16 -22 -11 -4 4 -2 7 4
7 7 0 12 5 12 10 0 7 -8 6 -22 -2 -34 -19 -60 -19 -53 0 4 12 0 11 -16 -4 -12
-10 -20 -14 -16 -9 3 6 -3 16 -13 23 -14 9 -19 8 -24 -3z m-196 -35 c0 -5 -5
-10 -11 -10 -5 0 -7 5 -4 10 3 6 8 10 11 10 2 0 4 -4 4 -10z m-159 -43 c-10
-9 -11 -8 -5 6 3 10 9 15 12 12 3 -3 0 -11 -7 -18z m824 -26 c-3 -6 -11 -11
-16 -11 -5 0 -4 6 3 14 14 16 24 13 13 -3z m-910 -1 c-3 -5 -14 -10 -23 -9
-14 0 -13 2 3 9 27 11 27 11 20 0z m-389 -145 c-8 -8 -18 -15 -22 -15 -3 0 -1
7 6 15 7 8 17 15 22 15 5 0 3 -7 -6 -15z m-200 -124 c0 -10 -6 -17 -12 -14 -7
2 -19 -6 -28 -19 -9 -12 -16 -17 -16 -11 0 9 48 63 55 63 1 0 1 -8 1 -19z
m1853 6 c8 -10 7 -14 -4 -14 -8 0 -12 4 -9 8 2 4 -2 10 -8 12 -8 4 -9 6 -2 6
6 1 17 -5 23 -12z m30 -40 c8 -10 7 -14 -2 -14 -8 0 -14 6 -14 14 0 7 1 13 2
13 2 0 8 -6 14 -13z m-2020 -113 c-6 -8 -17 -14 -23 -14 -6 0 -5 4 3 9 7 5 11
14 7 20 -5 7 -1 9 9 5 12 -5 13 -9 4 -20z m2126 -4 c10 -11 16 -23 12 -26 -3
-3 -10 4 -17 15 -6 12 -15 19 -21 16 -5 -4 -9 -1 -9 4 0 17 15 13 35 -9z m65
-116 c0 -8 -4 -14 -8 -14 -4 0 -8 9 -8 19 0 11 4 17 8 15 4 -3 8 -12 8 -20z
m-2280 -34 c0 -5 -5 -10 -11 -10 -5 0 -7 5 -4 10 3 6 8 10 11 10 2 0 4 -4 4
-10z m-30 -60 c0 -5 -5 -10 -11 -10 -5 0 -7 5 -4 10 3 6 8 10 11 10 2 0 4 -4
4 -10z m-40 -205 c0 -2 -6 -5 -13 -8 -8 -3 -14 1 -14 8 0 7 6 11 14 8 7 -3 13
-6 13 -8z m-18 -59 c7 4 8 2 4 -5 -9 -13 -26 -5 -25 12 0 9 2 8 6 -1 2 -6 10
-9 15 -6z m2488 -16 c0 -5 -2 -10 -4 -10 -3 0 -8 5 -11 10 -3 6 -1 10 4 10 6
0 11 -4 11 -10z m0 -260 c0 -5 -2 -10 -4 -10 -3 0 -8 5 -11 10 -3 6 -1 10 4
10 6 0 11 -4 11 -10z m-4 -48 c-17 -16 -18 -16 -5 5 7 12 15 20 18 17 3 -2 -3
-12 -13 -22z m-2539 11 c-4 -3 -2 -12 3 -18 7 -9 6 -14 -3 -18 -9 -3 -13 2
-11 16 3 28 3 27 11 27 3 0 3 -3 0 -7z m2558 -49 c-2 -40 -18 -63 -30 -43 -5
8 -4 10 3 5 7 -4 12 -2 12 3 0 6 -6 11 -12 12 -10 0 -10 2 0 6 6 2 12 9 12 14
0 6 -4 7 -10 4 -17 -11 -11 7 8 21 9 7 18 14 18 14 1 0 1 -16 -1 -36z m-2539
-6 c4 -7 3 -8 -4 -4 -7 4 -12 2 -12 -5 0 -7 -3 -10 -6 -6 -6 5 3 27 11 27 2 0
7 -5 11 -12z m1 -33 c0 -8 -4 -12 -9 -9 -5 3 -6 10 -3 15 9 13 12 11 12 -6z
m-26 -108 c-10 -9 -11 -8 -5 6 3 10 9 15 12 12 3 -3 0 -11 -7 -18z m9 -132 c0
-8 -2 -15 -4 -15 -2 0 -6 7 -10 15 -3 8 -1 15 4 15 6 0 10 -7 10 -15z m2450
-215 c-8 -5 -19 -10 -25 -10 -5 0 -3 5 5 10 8 5 20 10 25 10 6 0 3 -5 -5 -10z
m-2383 -22 c-3 -8 -6 -5 -6 6 -1 11 2 17 5 13 3 -3 4 -12 1 -19z m68 -77 c3
-5 2 -12 -3 -15 -5 -3 -9 1 -9 9 0 17 3 19 12 6z m25 -61 c0 -5 -2 -10 -4 -10
-3 0 -8 5 -11 10 -3 6 -1 10 4 10 6 0 11 -4 11 -10z m93 -77 c-7 -3 -13 -9
-13 -14 0 -6 4 -8 8 -5 5 3 9 -1 9 -9 0 -17 -13 -10 -26 13 -8 14 -5 18 12 19
12 0 16 -1 10 -4z m118 -110 c13 -16 12 -17 -3 -4 -17 13 -22 21 -14 21 2 0
10 -8 17 -17z m1389 -193 c0 -16 -17 -20 -28 -7 -8 10 -6 13 9 14 10 1 19 -2
19 -7z m-1015 -29 c3 -5 2 -12 -3 -15 -5 -3 -9 1 -9 9 0 17 3 19 12 6z m28 -6
c-3 -9 -8 -14 -10 -11 -3 3 -2 9 2 15 9 16 15 13 8 -4z m84 -31 c-9 -9 -28 6
-21 18 4 6 10 6 17 -1 6 -6 8 -13 4 -17z m641 0 c0 -15 -4 -22 -10 -16 -5 5
-6 16 -2 25 9 23 12 21 12 -9z"/>
<path d="M1523 2563 c-15 -5 -17 -23 -4 -23 5 0 11 7 15 15 3 8 4 15 3 14 -1
0 -8 -3 -14 -6z"/>
<path d="M1755 2530 c-3 -5 -1 -10 4 -10 6 0 11 5 11 10 0 6 -2 10 -4 10 -3 0
-8 -4 -11 -10z"/>
<path d="M927 2479 c7 -7 15 -10 18 -7 3 3 -2 9 -12 12 -14 6 -15 5 -6 -5z"/>
<path d="M795 2420 c6 -9 4 -12 -7 -8 -9 4 -15 0 -15 -8 0 -18 11 -18 26 0 9
11 9 16 0 22 -8 5 -9 3 -4 -6z"/>
<path d="M710 2396 c0 -2 7 -7 16 -10 8 -3 12 -2 9 4 -6 10 -25 14 -25 6z"/>
<path d="M683 2375 c0 -7 6 -11 14 -8 7 3 13 6 13 8 0 2 -6 5 -13 8 -8 3 -14
-1 -14 -8z"/>
<path d="M620 2351 c0 -6 4 -13 10 -16 6 -3 7 1 4 9 -7 18 -14 21 -14 7z"/>
<path d="M176 1954 c-9 -24 -7 -28 9 -14 17 14 20 30 6 30 -5 0 -12 -7 -15
-16z"/>
<path d="M67 1663 c3 -7 8 -13 12 -13 4 0 8 6 8 13 0 8 -6 14 -13 14 -7 0 -10
-6 -7 -14z"/>
<path d="M25 1330 c19 -20 9 -28 -13 -10 -9 7 -9 7 -2 -2 12 -15 13 -31 2 -24
-5 3 -9 -1 -9 -9 0 -20 6 -19 27 7 14 17 15 26 6 40 -6 10 -15 18 -20 18 -5 0
-1 -9 9 -20z"/>
<path d="M2575 1020 c3 -5 8 -10 11 -10 2 0 4 5 4 10 0 6 -5 10 -11 10 -5 0
-7 -4 -4 -10z"/>
<path d="M2535 950 c-3 -5 -1 -10 4 -10 6 0 11 5 11 10 0 6 -2 10 -4 10 -3 0
-8 -4 -11 -10z"/>
<path d="M5 851 c0 -21 4 -27 15 -23 13 5 13 3 0 -14 -11 -15 -11 -16 0 -7 20
18 20 39 1 57 -15 14 -17 13 -16 -13z"/>
<path d="M2525 858 c3 -11 7 -23 11 -27 4 -3 4 2 1 11 -3 9 -1 18 6 21 6 2 4
6 -5 10 -13 4 -16 1 -13 -15z"/>
<path d="M2502 789 c-9 -13 -8 -19 4 -23 9 -3 12 -2 9 5 -4 6 1 16 10 23 14
10 15 13 3 13 -9 0 -20 -8 -26 -18z"/>
<path d="M2468 643 c7 -3 16 -2 19 1 4 3 -2 6 -13 5 -11 0 -14 -3 -6 -6z"/>
<path d="M2440 620 c-9 -6 -10 -10 -3 -10 6 0 15 5 18 10 8 12 4 12 -15 0z"/>
<path d="M2405 560 c-3 -5 -2 -10 4 -10 5 0 13 5 16 10 3 6 2 10 -4 10 -5 0
-13 -4 -16 -10z"/>
<path d="M2397 529 c7 -7 15 -10 18 -7 3 3 -2 9 -12 12 -14 6 -15 5 -6 -5z"/>
<path d="M2265 400 c-3 -5 -1 -10 4 -10 6 0 11 5 11 10 0 6 -2 10 -4 10 -3 0
-8 -4 -11 -10z"/>
<path d="M2027 253 c-10 -9 -9 -23 1 -23 5 0 9 7 9 15 0 17 -1 18 -10 8z"/>
<path d="M1854 168 c-4 -5 -3 -12 0 -15 3 -4 6 -1 6 6 0 7 4 10 9 6 5 -3 12
-2 15 3 3 5 -2 9 -10 9 -8 0 -17 -4 -20 -9z"/>
<path d="M1560 90 c-8 -5 -12 -12 -9 -15 4 -3 12 1 19 10 14 17 11 19 -10 5z"/>
<path d="M1435 59 c-4 -6 -5 -12 -2 -15 2 -3 7 2 10 11 7 17 1 20 -8 4z"/>
</g>
</svg>
