<svg xmlns="http://www.w3.org/2000/svg" width="300.766" height="137.961" viewBox="0 0 300.766 137.961">
  <g id="グループ_131" data-name="グループ 131" transform="translate(-333.68 -229.939)">
    <path id="パス_260" data-name="パス 260" d="M340.814,238.938v-8.515l.229-.307h4.489l.229.269V238.9l3.107-.078.191.191v3.607l4.718.114h2.838v-3.183h-1.88l-4.641.115-.269-.191v-4.1l.231-.269,4.679.115h1.88v-4.794l.269-.307h4.832l.269.269v4.832h2.263l4.565-.115.307.231v4.1l-.191.231-4.68-.115h-2.263v3.183H365.9l4.681-.114.229.191v4.181l-.269.269-4.641-.115h-12.12l-5.025.115-.267-.231V243.81l-2.724-.078v5.523c1.074-.345,2.147-.689,3.338-1.074l-.04,2.456,5.025.114h7.9v-2.263l.307-.384h4.412l.345.346v2.263l2.761-.076.231.191v4.181l-.269.267-2.723-.076v2.071l.153,4.832c0,3.452-1.534,4.718-6.866,4.718-.767,0-.844-.076-1-.46l-1.84-4.641c1.8-.038,2.8-.078,3.452-.153.806-.038,1.036-.269,1.036-1.189v-5.216h-7.9l-5.025.114-.267-.229v-2.185a.635.635,0,0,1-.269.152c-.767.307-1.727.653-2.762,1.036l.191,12.851h-5.33l.153-11.124c-1.535.538-3.147,1.036-4.756,1.534l-.346-.076-1.994-4.565.231-.384c2.685-.612,4.87-1.112,6.9-1.648v-6.943h-1.342c-.307,1.8-.613,3.49-.92,4.91-.078.307-.231.46-.5.46a1.11,1.11,0,0,1-.612-.191l-3.491-1.842a78.776,78.776,0,0,0,1.573-13.271l.267-.076,4.22,1,.116.42c-.116,1.3-.271,2.609-.384,3.836Zm13.5,16.609h.384a21.719,21.719,0,0,1,4.027,4.256l-.038.345-3.952,2.878-.345-.04a30.842,30.842,0,0,0-3.758-4.525l.078-.345Z" transform="translate(0 0.129)" fill="#9b0001"/>
    <path id="パス_261" data-name="パス 261" d="M376.242,231.447l5.33-.115.269.269-.115,4.45v3.374l.115,5.216-.269.269-5.33-.115h-1.88c-.038.882-.038,1.765-.078,2.647h2.992l4.949-.115.269.269a104.23,104.23,0,0,1-.615,11.584c-.574,4.563-1.687,6.673-7.748,6.673a1.028,1.028,0,0,1-1.112-.729l-1.994-4.563a24.653,24.653,0,0,1-3.989,4.718,1,1,0,0,1-.538.345c-.153,0-.269-.115-.46-.307L362.7,261.67c4.717-3.834,6.328-7.632,6.368-16.837l-4.181.076-.269-.269.114-5.216V236.05l-.114-4.45.269-.269,5.33.115Zm.191,8.937v-4.527h-6.559v4.527Zm-2.494,11.66a20.655,20.655,0,0,1-2.876,8.437c1.725.115,2.378.115,2.876.115,2,0,2.3-.613,2.647-3.221a46.619,46.619,0,0,0,.383-5.332Zm16.034-17.26v10.97l.191,10.74h-5.677l.191-10.74v-10.97l.269-.269H389.7Zm8.13,25.353c0,4.525-1.074,5.792-7.326,5.792-.767,0-.8-.078-1-.46l-2.454-4.948c1.8,0,3.49-.078,4.143-.153.8-.078,1.036-.307,1.036-1.227V230.987l.267-.269h4.91l.269.269v20.788Z" transform="translate(20.991 0.563)" fill="#9b0001"/>
    <path id="パス_262" data-name="パス 262" d="M409.868,231.856c-.345,1.534-.767,3.03-1.111,4.41q2.014-.4,4.027-.919l.345.152.729,3.376a31.959,31.959,0,0,1,11.853,2.992l.114.384-1.572,4.257-.307.153a6.312,6.312,0,0,0-3.107-.651c-2.456,0-4.565.958-4.565,2.685,0,1.189.576,2.954,1.689,5.714a36.775,36.775,0,0,1,8.361,4.91v.384l-3.223,4.143-.345.038a36.848,36.848,0,0,0-4.489-3.645c-.114,3.107-3.49,5.141-7.824,5.141-4.985,0-8.055-1.994-8.055-5.983,0-3.605,3.069-6.137,7.172-6.137a13.038,13.038,0,0,1,2.494.191,13.47,13.47,0,0,1-.844-4.68c.078-2.07,2.033-3.834,5.216-4.794a48.689,48.689,0,0,0-5.216-.536l-.191-.269.96-2.187c-1.651.346-3.338.691-5.025.92a67.4,67.4,0,0,1-9.052,16.878l-.384.076-4.525-2.914V255.6a50.53,50.53,0,0,0,7.748-12.964c-1.994.193-4.027.308-6.137.346l-.307-.231-.115-4.717.269-.269c2.914-.078,5.639-.269,8.246-.538a56.5,56.5,0,0,0,1.458-6.368l.345-.229,5.141.882Zm-.46,25.853c-1.3,0-2.071.8-2.071,1.456,0,.922.844,1.535,2.225,1.535,2.187,0,3.452-.769,3.414-2.3A6.749,6.749,0,0,0,409.408,257.709Z" transform="translate(42.9 0.499)" fill="#9b0001"/>
    <path id="パス_263" data-name="パス 263" d="M448.638,259.119v-7.863l.269-.269h5.216l.229.307v6.752l.191,8.4h-5.906v-2.454H427.81v2.454h-5.752l.191-8.4v-6.79l.269-.269h5.063l.229.307v7.825h7.327V248.533h-5.178l-5.754.115-.269-.269.115-6.483v-7.019l.269-.269h4.985l.269.269v8.9h5.563V230.735l.267-.307h5.179l.269.269v13.08h5.677v-8.9l.269-.269h5.139l.269.269v6.828l.115,6.674-.345.269-5.639-.115h-5.485v10.586Z" transform="translate(63.923 0.354)" fill="#9b0001"/>
    <path id="パス_264" data-name="パス 264" d="M477.283,247.275l-.229.191-4.3-.114h-9.013l-4.258.114-.267-.229v-2.3c-1.382,1.034-2.876,1.994-4.45,2.952a1.955,1.955,0,0,1-.92.345.815.815,0,0,1-.614-.267l-3.76-3.721a40.1,40.1,0,0,0,15.994-14.191l.424-.115,5.483,1.38.116.384c-.229.345-.46.651-.653,1a45.767,45.767,0,0,0,16.3,10.395l-3.605,4.1c-.422.5-.767.689-1.074.689a1.338,1.338,0,0,1-.691-.229q-2.36-1.323-4.489-2.762Zm-9.818,7.479a54.062,54.062,0,0,1-3.414,6.214c3.414-.115,6.828-.383,10.242-.653-1.036-1-2.071-1.916-3.185-2.8l.078-.345,3.759-2.187.345-.038a56.507,56.507,0,0,1,9.015,8.361l-.038.307-3.912,3.26-.384-.04c-.653-.882-1.3-1.725-1.994-2.532-8.361.96-15.037,1.5-24.088,2.071l-.345-.191-1.573-4.525.269-.346c2.147-.038,4.065-.076,5.907-.114a50.759,50.759,0,0,0,3.223-6.445H457.8l-6.175.115-.269-.231v-4.448l.229-.231,6.214.115H478.7l6.214-.115.229.191v4.527l-.229.191-6.214-.115Zm6.828-12.082a59.3,59.3,0,0,1-6.368-6.059,41.846,41.846,0,0,1-5.868,6.059l1.687.04h9.013Z" transform="translate(83.754 0)" fill="#9b0001"/>
    <path id="パス_265" data-name="パス 265" d="M481.038,233.3l5.408.191.269.269c-.345,4.258-.46,8.055-.46,10.279a27.641,27.641,0,0,0,.882,7.595c.422,1.5.922,2.607,1.765,2.607,1.036,0,2.34-2.071,3.223-5.6l3.836,4.832a.807.807,0,0,1,.114.958c-1.534,3.989-4.027,6.866-7.134,6.866-2.494,0-4.679-1.763-6.214-4.87A28.793,28.793,0,0,1,480.5,244.5c0-3.107.076-6.79.269-10.97Zm18.181,6.673,3.683-2.954.422-.076a28.991,28.991,0,0,1,10.164,12.389l-.115.346-4.87,3.03-.384-.115c-2.071-5.294-4.985-9.475-8.975-12.273Z" transform="translate(106.195 2.431)" fill="#9b0001"/>
    <path id="パス_266" data-name="パス 266" d="M512.092,250.46a5.447,5.447,0,1,1-5.447-5.408A5.338,5.338,0,0,1,512.092,250.46Zm-8.63,0a3.184,3.184,0,1,0,3.183-3.183A3.127,3.127,0,0,0,503.462,250.46Z" transform="translate(121.165 10.931)" fill="#9b0001"/>
    <path id="パス_267" data-name="パス 267" d="M355.762,261.4c-.229.384-.458.767-.689,1.113a41.9,41.9,0,0,0,16.339,12.7l-3.95,3.952c-.46.46-.8.691-1.112.691a1.227,1.227,0,0,1-.653-.231,60.043,60.043,0,0,1-6.252-4.834v2.569l-.229.193-4.3-.116h-5.563l-4.257.116-.269-.231v-2.263a47.791,47.791,0,0,1-5.792,4.525,1.95,1.95,0,0,1-.92.384.86.86,0,0,1-.613-.307l-3.758-3.452c5.446-2.916,11.277-8.477,15.84-16.531l.422-.115,5.639,1.458Zm-15.61,23.513-.269-.229v-4.565l.231-.229,4.294.114h14.46l3.069-.191,2.034,1.956a1.043,1.043,0,0,1,.422.729,2.461,2.461,0,0,1-.193.767,132.867,132.867,0,0,1-5.754,13.311l-5.676-1.382a78.478,78.478,0,0,0,4.565-10.393H344.409Zm17.068-12.273a48.112,48.112,0,0,1-4.948-5.87,72.558,72.558,0,0,1-4.948,5.907l2.032.038h5.563Z" transform="translate(0.048 21.426)" fill="#9b0001"/>
    <path id="パス_268" data-name="パス 268" d="M366.519,292.343v2.952h-5.79l.191-16.838V267.91l-.115-6.559.307-.231,6.483.115H381.44l6.445-.115.307.231-.116,6.559v9.973l.191,17.412h-5.945v-2.952Zm15.8-26.275h-15.8V274.2h15.8Zm0,12.926h-15.8v8.439h15.8Z" transform="translate(19.564 22.553)" fill="#9b0001"/>
    <path id="パス_269" data-name="パス 269" d="M383.84,292.671c2.07-6.673,3.988-12.5,5.945-18.37-1.765.267-3.836.536-5.754.767l-.307-.231-.844-4.641.231-.269c3.03-.229,5.868-.576,8.515-.958.92-2.647,1.8-5.37,2.8-8.324l.383-.193,5.178,1.267.115.422q-1.21,3.28-2.187,6.1c.767-.038,1.5-.078,2.225-.078,3.183,0,6.176,1.956,6.137,7.557a45.859,45.859,0,0,1-1.765,13.118c-1.38,4.334-3.912,5.254-5.944,5.254a18.156,18.156,0,0,1-4.718-.691c-.269-.076-.384-.152-.422-.689l-.46-5.447a13.394,13.394,0,0,0,3.836.844c1.227,0,1.765-.229,2.338-2.033a42.41,42.41,0,0,0,1.382-10.011c0-2.3-.269-2.762-1.956-2.762-.691,0-1.573.078-2.531.155-2.571,7.288-4.489,13.231-6.6,20.673l-.422.116-5.063-1.265ZM406.7,269.62l4.065-2.569h.384a37.907,37.907,0,0,1,7.364,12.082l-.153.383-4.794,2.762-.345-.076a36.014,36.014,0,0,0-6.6-12.2Z" transform="translate(35.586 22.07)" fill="#9b0001"/>
    <path id="パス_270" data-name="パス 270" d="M411.968,269.773l4.794.92.229.345a53.764,53.764,0,0,0-1.534,8.172,15.053,15.053,0,0,1,10.97-4.681c6.406,0,9.9,3.989,9.9,8.822,0,7.479-7.25,10.7-17.95,11.277-.691,0-.92-.04-1.227-.5l-3.185-4.679c10.279-.307,15.994-2.34,15.994-6.021,0-2.3-.8-3.989-3.989-3.989-3.45,0-7.708,1.918-10.815,7.364l-.383.191-4.68-.421-.269-.346a74.942,74.942,0,0,1,1.765-16.3Zm2.876-4.948,2.378-4.181.384-.193a43.02,43.02,0,0,1,9.282,3.569l.076.383-2.607,4.487-.384.078a40.207,40.207,0,0,0-9.013-3.836Z" transform="translate(55.067 22.07)" fill="#9b0001"/>
    <path id="パス_271" data-name="パス 271" d="M432.984,281.649l4.756-1.572.307.153c.651,3.989,2.723,4.6,9.128,4.6a84.559,84.559,0,0,0,12.351-.96l.345.269.538,5.754-.229.345a123.027,123.027,0,0,1-13.387.613c-11.469,0-13.54-4.641-14-8.937Zm4.489-18.6c2.3.229,4.562.345,6.826.345a86.377,86.377,0,0,0,11.851-.96l.269.231.153,5.408-.307.269a68.8,68.8,0,0,1-12,.958c-2.149,0-4.641-.115-6.943-.345l-.307-.269.191-5.446Z" transform="translate(71.687 23.503)" fill="#9b0001"/>
    <path id="パス_272" data-name="パス 272" d="M457.094,281.649l4.756-1.572.307.153c.651,3.989,2.723,4.6,9.128,4.6a84.558,84.558,0,0,0,12.351-.96l.345.269.538,5.754-.229.345a123.025,123.025,0,0,1-13.387.613c-11.469,0-13.54-4.641-14-8.937Zm4.489-18.6c2.3.229,4.562.345,6.824.345a86.381,86.381,0,0,0,11.853-.96l.269.231.153,5.408-.307.269a68.8,68.8,0,0,1-12,.958c-2.149,0-4.641-.115-6.943-.345l-.307-.269.191-5.446Z" transform="translate(89.126 23.503)" fill="#9b0001"/>
    <path id="パス_273" data-name="パス 273" d="M486.262,274.737a4.217,4.217,0,0,0-.307,1.42c0,.843.767.958,2.914.958.308-2.147.538-3.721.769-5.332-2.687-.152-4.949-.345-7.021-.614l-.231-.345.309-4.45.305-.231a62.152,62.152,0,0,0,7.4.653c.309-2.109.614-4.257.844-6.175l.345-.193,5.332.613.269.346c-.229,1.61-.538,3.452-.882,5.332,1.765-.078,3.491-.271,5.294-.5l.305.229.309,4.527-.346.307c-1.956.231-4.181.384-6.443.46-.307,1.8-.576,3.605-.8,5.294a67.553,67.553,0,0,0,7.9-1l.345.229.5,4.489-.229.307c-3.3.536-6.328.882-9.13,1.112a31.745,31.745,0,0,0-.383,4.3c0,1.918.882,2.647,3.8,2.647,5.139,0,6.559-1,6.559-2.571,0-.8-.384-2.032-2.187-3.988l4.565-1.535a.772.772,0,0,1,.843.231c2.8,2.954,3.26,4.756,3.26,6.521,0,3.834-3.145,6.674-13,6.674-7.517,0-9.664-3.031-9.664-6.943a40.814,40.814,0,0,1,.384-5.332c-5.1-.269-7.212-1.267-7.212-4.334a7.388,7.388,0,0,1,.691-3.107l.307-.153,4.1-.153Z" transform="translate(106.532 22.054)" fill="#9b0001"/>
    <path id="パス_274" data-name="パス 274" d="M505.3,274.3a32.965,32.965,0,0,1,7.979,7.557v.307l-3.95,3.567h-.345a34.37,34.37,0,0,0-7.788-7.977V277.4l3.721-3.067Z" transform="translate(121.165 32.083)" fill="#9b0001"/>
    <path id="パス_275" data-name="パス 275" d="M348.431,320.98a8.618,8.618,0,0,1-1-1.034,14.036,14.036,0,0,1-7.21,2.416c-2.992,0-4.718-2.34-4.718-5.485,0-5.752,4.027-10.817,9.052-13.464.038-1.3.116-2.339.191-3.643-1.878.153-3.836.231-5.906.269l-.231-.269-.078-4.487.271-.267c1.916,0,4.065-.04,6.25-.193.115-1.458.231-2.914.307-4.372l.269-.309,5.141.193.191.345c-.153,1.189-.269,2.378-.422,3.607a66.454,66.454,0,0,0,9.244-1.918l.384.152.229,4.758-.191.345c-3.491.689-6.75,1.227-10.126,1.649-.038.536-.116,1.5-.191,2.569a25.062,25.062,0,0,1,4.143-.346,10.549,10.549,0,0,0,.345-1.534l.269-.191,4.755,1.112.193.269c-.115.538-.193.884-.269,1.189a10.165,10.165,0,0,1,7.9,9.59c0,7.288-5.254,11.162-12.158,12.427-.308,0-.462,0-.653-.229L351,320.215c8.248-1.382,10.51-4.145,10.51-8.477,0-2.955-1.343-4.6-3.414-5.334a27.982,27.982,0,0,1-6.368,10.128,6.5,6.5,0,0,0,.729.92l-.076.345-3.607,3.183Zm-7.939-5.406c0,.843.5,1.225,1.3,1.225a7.972,7.972,0,0,0,3.49-1.572,28.122,28.122,0,0,1-.767-6.445C342.217,310.665,340.492,313.5,340.492,315.574Zm12.389-9.9a9.475,9.475,0,0,0-3.26.422,25.143,25.143,0,0,0,.153,5.1A21,21,0,0,0,352.881,305.677Z" transform="translate(1.32 43.544)" fill="#9b0001"/>
    <path id="パス_276" data-name="パス 276" d="M374.26,291.058c-.345,1.535-.767,3.03-1.111,4.412q2.011-.4,4.026-.922l.346.155.727,3.376A31.917,31.917,0,0,1,390.1,301.07l.115.383-1.573,4.258-.307.153a6.3,6.3,0,0,0-3.105-.653c-2.456,0-4.565.96-4.565,2.687,0,1.187.576,2.952,1.687,5.714a36.673,36.673,0,0,1,8.361,4.91v.383l-3.221,4.143-.346.038a36.651,36.651,0,0,0-4.487-3.643c-.115,3.105-3.49,5.139-7.824,5.139-4.987,0-8.055-1.994-8.055-5.983,0-3.605,3.067-6.137,7.172-6.137a13.2,13.2,0,0,1,2.494.191,13.431,13.431,0,0,1-.844-4.679c.076-2.071,2.034-3.836,5.216-4.8a48.75,48.75,0,0,0-5.216-.536l-.191-.269.958-2.187c-1.649.346-3.336.691-5.025.92a67.319,67.319,0,0,1-9.052,16.878l-.383.078-4.527-2.916V314.8a50.5,50.5,0,0,0,7.75-12.966c-2,.193-4.027.308-6.138.346l-.3-.231-.116-4.717.267-.269c2.916-.076,5.639-.269,8.248-.536a56.581,56.581,0,0,0,1.458-6.368l.345-.231,5.139.882Zm-.46,25.851c-1.3,0-2.071.807-2.071,1.458,0,.92.843,1.535,2.225,1.535,2.187,0,3.452-.767,3.414-2.3A6.751,6.751,0,0,0,373.8,316.909Z" transform="translate(17.143 43.319)" fill="#9b0001"/>
    <path id="パス_277" data-name="パス 277" d="M380.8,322.419c1.956-7.288,3.681-13.5,5.408-19.792-1.956.229-3.874.422-5.792.538l-.307-.269-.383-4.641.267-.309c2.84-.229,5.332-.5,7.672-.8.576-2.147,1.189-4.41,1.8-6.673l.345-.193,5.256.806.267.345c-.5,1.573-1,3.3-1.418,4.832,1.534-.267,3.067-.576,4.487-.881l.307.152.345,4.794-.267.309c-2.073.382-4.258.765-6.405,1.111-2.034,7.1-3.914,14.114-5.87,21.979l-.345.152-5.216-1.149Zm12.811-3.49,2.8-3.529.384-.038c1.918,2.07,3.721,2.607,8.094,2.607a37.337,37.337,0,0,0,6.979-.614l.307.153v5.37l-.229.307a49.872,49.872,0,0,1-7.25.422c-6.712,0-8.86-1.572-11.084-4.258Zm3.605-11.622.345-4.72.269-.345c1.918-.152,3.8-.229,5.6-.229a53.362,53.362,0,0,1,7.286.46l.269.307-.383,4.756-.346.229c-2.607-.229-5.139-.383-7.863-.383-1.572,0-3.183.078-4.91.193Z" transform="translate(33.306 43.641)" fill="#9b0001"/>
    <path id="パス_278" data-name="パス 278" d="M417.222,317.515c8.246-1.38,11.967-5.332,11.967-9.935,0-5.83-3.221-9.513-7.134-10.317-.767,7.25-3.259,14-5.906,17.874-2.071,3.03-4.219,4.143-7.212,4.143-2.3,0-3.95-1.113-5.408-3.414a12.16,12.16,0,0,1-1.878-6.943c0-9.282,6.941-16.8,17.49-16.8,10.471,0,16.07,7.019,16.07,15.534,0,6.979-4.91,12.273-13.04,14.191a1.252,1.252,0,0,1-1.227-.384Zm-10.279-8.592a5.657,5.657,0,0,0,.651,2.916c.422.767.96,1.265,1.573,1.265.882,0,1.994-.881,3.03-2.952a38.363,38.363,0,0,0,3.8-13.042C410.394,298.068,406.942,303.017,406.942,308.923Z" transform="translate(49.162 44.978)" fill="#9b0001"/>
    <path id="パス_279" data-name="パス 279" d="M435.49,314.7c.229.729.076.918-.153,1.187a3.815,3.815,0,0,1-1.036.769,31.539,31.539,0,0,0,4.679.576c2.225,0,3.26-.653,3.26-1.8,0-1.036-1-1.88-3.643-3.991-2.609-2.032-4.3-3.988-4.3-5.828,0-1.918,1-3.989,4.948-7.134a20.662,20.662,0,0,1-6.406-4.143l.038-.346,3.26-3.372.422.036a27.367,27.367,0,0,0,11.853,4.489l.152.345-1.149,4.87-.307.269a12,12,0,0,0-1.651,0,6.011,6.011,0,0,0-3.605,1.689,4.147,4.147,0,0,0-1.649,2.607c0,.767.729,1.38,3.914,3.605,3.6,2.569,4.6,4.68,4.6,7.863,0,3.952-3.374,6.175-8.437,6.175a30.316,30.316,0,0,1-4.258-.5c-.536-.078-.729-.231-1-.882l-1.611-3.912a60.7,60.7,0,0,1-7.327,4.372l-.383-.115-2.494-4.755.116-.384a61.344,61.344,0,0,0,10.855-6.175Zm13.231-6.943,4.565-1.918.422.04a17.908,17.908,0,0,1,5.292,9.2l-.191.346-4.948,2.416-.345-.153a16.875,16.875,0,0,0-4.872-9.55Z" transform="translate(64.76 43.883)" fill="#9b0001"/>
    <path id="パス_280" data-name="パス 280" d="M452.152,298.649l-1-4.91.229-.345c5.83-1.3,11.737-2.225,15.918-2.762a3.458,3.458,0,0,1,3.528,3.336,2.659,2.659,0,0,1-.689,2c-3.107,3.069-5.254,5.025-8.439,8.17a9.486,9.486,0,0,1,4.794-1c5.792,0,9.666,3.95,9.666,9.9,0,6.979-5.254,10.929-14.114,10.929-4.527,0-8.363-1.878-8.363-6.25,0-2.492,2.762-5.332,5.868-5.332,4.565,0,6.752,2.992,7.788,5.676,2.263-1.074,2.954-2.876,2.954-5.561s-2.032-4.832-5.216-4.832c-5.485,0-9.437,3.605-13.5,8.859l-.384.038-4.1-3.3-.04-.422c5.294-6.061,10.126-11.353,15.227-16.416-2.914.615-6.29,1.42-9.819,2.418Zm7.786,18.22c-.765,0-1.458.3-1.458,1,0,.807.884,1.535,2.84,1.535a5.148,5.148,0,0,0,1.227-.115A2.919,2.919,0,0,0,459.938,316.869Z" transform="translate(82 43.899)" fill="#9b0001"/>
    <path id="パス_281" data-name="パス 281" d="M484.238,309.615a31.563,31.563,0,0,0,3.147-.422c.8-.153,1.074-.346.689-1.111-.729-1.42-1.727-3.107-2.916-4.987a64.153,64.153,0,0,1-13.616,1.727l-.307-.269-.882-4.6.231-.269a64.682,64.682,0,0,0,11.391-1.418c-1.38-1.918-2.916-3.952-4.6-6.023l.078-.345,4.948-1.84.383.038c1.613,2.032,3.262,4.294,4.872,6.6a43.911,43.911,0,0,0,6.6-2.916l.384.078,2.34,4.68-.153.345a63,63,0,0,1-6.023,2.532c1.649,2.607,3.107,5.025,4.1,6.866a5.306,5.306,0,0,1,.691,2.607c0,1.727-1.727,2.725-3.262,2.725a3.812,3.812,0,0,1-1.994-.613c-1.342-.769-2.378-1.267-6.021-2.111Zm-13.692,5.523,4.1-2.571.345.079c2.147,3.872,7.212,4.985,12.351,4.985,1.342,0,2.647-.078,4.6-.231l.193.269-1.267,5.714-.346.191c-1.3.078-2.339.078-3.872.078-7.6,0-13.271-2.8-16.149-8.17Z" transform="translate(98.854 43.481)" fill="#9b0001"/>
    <path id="パス_282" data-name="パス 282" d="M518.329,321.154c-3.528.271-7.248.422-12.082.422-9.206,0-13.616-2.8-13.616-8.822,0-3.491,2.876-6.828,6.941-9.7a105.341,105.341,0,0,1-5.6-9.128l.076-.384,4.643-2.416.383.115a103.4,103.4,0,0,0,5.447,8.935,110.637,110.637,0,0,1,11.238-4.832l.384.155,2.263,5.023-.153.307c-3.336,1.113-6.752,2.416-8.975,3.376a2.466,2.466,0,0,0-1.036,1.918,2.828,2.828,0,0,1-2.762,2.492,3.945,3.945,0,0,1-2.645-1.034c-2.993,1.725-4.336,3.336-4.336,5.139,0,2.569,3.26,3.145,7.788,3.145a112.537,112.537,0,0,0,11.813-.767l.307.231.153,5.484Z" transform="translate(114.968 44.253)" fill="#9b0001"/>
  </g>
</svg>
