<svg xmlns="http://www.w3.org/2000/svg" width="72.31" height="145.507" viewBox="0 0 72.31 145.507">
  <g id="グループ_132" data-name="グループ 132" transform="translate(-256.538 -280.318)">
    <path id="パス_283" data-name="パス 283" d="M321.491,284.712v-4.1l.111-.148h2.161l.11.129v4.1l1.5-.037.093.092v1.736l2.271.055H329.1v-1.533h-.9l-2.235.055-.128-.092v-1.976l.11-.129,2.254.055h.9v-2.309l.13-.148h2.326l.13.129v2.328h1.09l2.2-.055.148.111v1.976l-.092.111-2.253-.055h-1.09v1.533h1.883l2.254-.055.111.092v2.014l-.129.129-2.235-.055h-5.836l-2.419.055-.13-.111v-1.552l-1.312-.037v2.659l1.607-.516-.018,1.181,2.419.055h3.8v-1.09l.148-.184h2.124l.165.165v1.09l1.33-.037.111.092v2.014l-.128.129-1.312-.037v1l.074,2.327c0,1.663-.739,2.272-3.306,2.272-.37,0-.406-.037-.479-.222l-.887-2.235c.867-.018,1.348-.037,1.661-.074.389-.018.5-.129.5-.573v-2.512h-3.8l-2.419.055-.13-.111v-1.053a.3.3,0,0,1-.129.074c-.369.148-.831.314-1.33.5l.093,6.188H321.4l.074-5.356c-.739.259-1.516.5-2.291.739l-.166-.037-.961-2.2.111-.185c1.292-.3,2.346-.536,3.324-.794V287h-.647c-.148.868-.3,1.681-.443,2.364-.036.148-.11.222-.24.222a.538.538,0,0,1-.3-.092l-1.681-.886a37.816,37.816,0,0,0,.758-6.391l.128-.037,2.033.48.055.2c-.055.628-.128,1.256-.185,1.846Zm6.5,8h.185a10.5,10.5,0,0,1,1.94,2.05l-.019.166-1.9,1.386-.166-.018a14.959,14.959,0,0,0-1.81-2.18l.037-.165Z" transform="translate(-7.401 -0.018)" fill="#9b0001"/>
    <path id="パス_284" data-name="パス 284" d="M324.66,309.916l2.567-.055.128.129-.055,2.142v1.626l.055,2.512-.128.128-2.567-.055h-.905c-.019.424-.019.849-.037,1.274h1.44l2.383-.055.129.129a50.184,50.184,0,0,1-.3,5.578c-.277,2.2-.813,3.214-3.731,3.214a.5.5,0,0,1-.536-.351l-.961-2.2a11.848,11.848,0,0,1-1.92,2.271.482.482,0,0,1-.259.166c-.074,0-.129-.055-.222-.148l-1.606-1.754c2.271-1.847,3.048-3.675,3.066-8.108l-2.013.036-.129-.128.055-2.512v-1.626l-.055-2.142.129-.129,2.567.055Zm.091,4.3v-2.18h-3.158v2.18Zm-1.2,5.615a9.95,9.95,0,0,1-1.385,4.063c.83.055,1.145.055,1.385.055.961,0,1.108-.3,1.274-1.552a22.358,22.358,0,0,0,.185-2.567Zm7.719-8.311V316.8l.093,5.172h-2.733l.092-5.172v-5.282l.128-.129h2.291Zm3.916,12.208c0,2.179-.517,2.789-3.528,2.789-.37,0-.389-.037-.48-.222L330,323.916c.869,0,1.681-.037,2-.074.387-.037.5-.148.5-.591V309.694l.129-.129h2.364l.129.129v10.011Z" transform="translate(-7.411 -3.519)" fill="#9b0001"/>
    <path id="パス_285" data-name="パス 285" d="M327.548,338.5c-.166.739-.369,1.459-.536,2.124q.969-.194,1.94-.443l.165.074.352,1.625a15.376,15.376,0,0,1,5.707,1.441l.056.185-.758,2.051-.148.074a3.037,3.037,0,0,0-1.5-.314c-1.182,0-2.2.462-2.2,1.292a8.753,8.753,0,0,0,.813,2.753,17.691,17.691,0,0,1,4.026,2.364v.185l-1.552,2-.165.018a17.684,17.684,0,0,0-2.161-1.755c-.055,1.5-1.68,2.475-3.768,2.475-2.4,0-3.879-.961-3.879-2.882,0-1.736,1.477-2.955,3.454-2.955a6.289,6.289,0,0,1,1.2.092,6.462,6.462,0,0,1-.406-2.254c.037-1,.979-1.846,2.511-2.308a23.421,23.421,0,0,0-2.511-.259l-.093-.129.463-1.053c-.794.166-1.607.333-2.419.443a32.444,32.444,0,0,1-4.36,8.127l-.185.037-2.179-1.4v-.166a24.319,24.319,0,0,0,3.73-6.243c-.961.092-1.939.148-2.955.166l-.148-.111-.055-2.272.129-.129c1.4-.037,2.716-.129,3.972-.258a27.275,27.275,0,0,0,.7-3.067l.167-.111,2.474.425Zm-.222,12.448c-.629,0-1,.388-1,.7,0,.443.406.739,1.071.739,1.053,0,1.662-.37,1.643-1.108A3.244,3.244,0,0,0,327.326,350.949Z" transform="translate(-7.565 -6.929)" fill="#9b0001"/>
    <path id="パス_286" data-name="パス 286" d="M332.346,380.51v-3.786l.128-.129h2.512l.112.148v3.25l.091,4.045h-2.844v-1.182H322.317v1.182h-2.771l.092-4.045v-3.269l.129-.129h2.438l.112.148v3.768h3.528v-5.1h-2.493l-2.771.055-.129-.129.055-3.121v-3.381l.129-.129h2.4l.128.129v4.285h2.679v-6.279l.129-.148h2.494l.129.129v6.3h2.733v-4.285l.129-.129h2.475l.13.129v3.288l.055,3.214-.166.129-2.715-.055H328.6v5.1Z" transform="translate(-7.58 -10.392)" fill="#9b0001"/>
    <path id="パス_287" data-name="パス 287" d="M331.51,403.113l-.111.092-2.069-.055h-4.34l-2.05.055-.129-.111v-1.108c-.665.5-1.385.961-2.142,1.422a.954.954,0,0,1-.443.166.391.391,0,0,1-.3-.129l-1.811-1.792a19.3,19.3,0,0,0,7.7-6.833l.2-.055,2.642.665.055.184c-.112.166-.222.314-.314.48a22.012,22.012,0,0,0,7.849,5.005l-1.737,1.977c-.2.24-.37.333-.517.333a.642.642,0,0,1-.332-.111q-1.136-.637-2.161-1.33Zm-4.728,3.6a26.043,26.043,0,0,1-1.644,2.992c1.644-.055,3.288-.184,4.932-.313-.5-.48-1-.924-1.533-1.349l.038-.166,1.81-1.053.166-.018a27.334,27.334,0,0,1,4.34,4.026l-.019.148-1.883,1.57-.185-.018c-.314-.425-.628-.831-.961-1.219-4.026.462-7.241.72-11.6,1l-.165-.092-.758-2.18.129-.166c1.035-.018,1.959-.037,2.845-.055a24.249,24.249,0,0,0,1.552-3.1h-1.718l-2.974.055-.128-.111v-2.142l.111-.111,2.992.055h10.066l2.992-.055.112.092v2.179l-.112.092-2.992-.055Zm3.287-5.818A28.442,28.442,0,0,1,327,397.979a20.046,20.046,0,0,1-2.826,2.918l.813.019h4.34Z" transform="translate(-7.409 -13.769)" fill="#9b0001"/>
    <path id="パス_288" data-name="パス 288" d="M320.351,424.158l2.6.092.128.129c-.165,2.05-.222,3.879-.222,4.95a13.28,13.28,0,0,0,.426,3.657c.2.72.443,1.256.85,1.256.5,0,1.127-1,1.551-2.7l1.847,2.327a.39.39,0,0,1,.055.462c-.739,1.92-1.939,3.306-3.434,3.306-1.2,0-2.254-.849-2.993-2.346a13.856,13.856,0,0,1-1.071-5.743c0-1.5.036-3.27.128-5.283Zm8.756,3.214,1.773-1.423.2-.037a13.959,13.959,0,0,1,4.9,5.967l-.056.165-2.346,1.459-.184-.055a12.546,12.546,0,0,0-4.323-5.911Z" transform="translate(-7.646 -17.305)" fill="#9b0001"/>
    <path id="パス_289" data-name="パス 289" d="M337.641,442.092a2.622,2.622,0,1,1-2.621-2.6A2.57,2.57,0,0,1,337.641,442.092Zm-4.155,0a1.533,1.533,0,1,0,1.533-1.532A1.506,1.506,0,0,0,333.486,442.092Z" transform="translate(-9.126 -19.15)" fill="#9b0001"/>
    <path id="パス_290" data-name="パス 290" d="M297.721,281.2c-.112.185-.222.37-.333.536a20.186,20.186,0,0,0,7.869,6.113l-1.9,1.9c-.222.222-.387.333-.535.333a.589.589,0,0,1-.315-.111,28.957,28.957,0,0,1-3.009-2.328v1.238l-.112.092-2.069-.055h-2.678l-2.051.055-.128-.111v-1.09a23.106,23.106,0,0,1-2.789,2.18.952.952,0,0,1-.443.185.413.413,0,0,1-.3-.148l-1.811-1.663a20.237,20.237,0,0,0,7.629-7.96l.2-.055,2.716.7ZM290.2,292.526l-.129-.111v-2.2l.112-.111,2.068.055h6.963l1.478-.092.978.942a.5.5,0,0,1,.2.351,1.18,1.18,0,0,1-.092.369,63.923,63.923,0,0,1-2.771,6.409l-2.734-.665a37.614,37.614,0,0,0,2.2-5.005h-6.224Zm8.219-5.91a23.313,23.313,0,0,1-2.382-2.826,35.328,35.328,0,0,1-2.382,2.845l.978.018h2.678Z" transform="translate(-3.679)" fill="#9b0001"/>
    <path id="パス_291" data-name="パス 291" d="M292.616,320.53v1.422h-2.789l.093-8.109v-5.079l-.056-3.158.148-.111,3.121.055H299.8l3.1-.055.148.111L303,308.764v4.8l.091,8.386h-2.863V320.53Zm7.61-12.652h-7.61v3.915h7.61Zm0,6.224h-7.61v4.063h7.61Z" transform="translate(-4.005 -3.029)" fill="#9b0001"/>
    <path id="パス_292" data-name="パス 292" d="M288.442,343.773c1-3.214,1.921-6.021,2.863-8.848-.85.129-1.847.259-2.771.369l-.148-.111-.406-2.234.111-.129c1.459-.111,2.825-.277,4.1-.462.443-1.275.867-2.586,1.349-4.008l.184-.092,2.494.61.055.2q-.582,1.578-1.053,2.936c.37-.018.72-.037,1.072-.037,1.533,0,2.973.942,2.955,3.638a22.058,22.058,0,0,1-.85,6.317c-.664,2.087-1.883,2.53-2.863,2.53a8.776,8.776,0,0,1-2.272-.332c-.129-.037-.184-.074-.2-.332l-.222-2.623a6.453,6.453,0,0,0,1.847.406c.591,0,.85-.111,1.127-.979a20.46,20.46,0,0,0,.665-4.821c0-1.108-.129-1.329-.942-1.329-.333,0-.757.036-1.219.073-1.237,3.51-2.161,6.372-3.177,9.955l-.2.055-2.439-.609Zm11.008-11.1,1.956-1.238h.186a18.278,18.278,0,0,1,3.546,5.818l-.074.185-2.309,1.33-.166-.037a17.342,17.342,0,0,0-3.177-5.874Z" transform="translate(-3.783 -5.768)" fill="#9b0001"/>
    <path id="パス_293" data-name="パス 293" d="M291.679,356.264l2.309.443.111.166a25.8,25.8,0,0,0-.738,3.934,7.248,7.248,0,0,1,5.282-2.253c3.084,0,4.765,1.921,4.765,4.248,0,3.6-3.49,5.153-8.644,5.43-.333,0-.443-.018-.591-.24l-1.533-2.254c4.95-.148,7.7-1.126,7.7-2.9,0-1.108-.388-1.921-1.921-1.921-1.662,0-3.712.924-5.208,3.547l-.185.092-2.254-.2-.129-.166a36.128,36.128,0,0,1,.85-7.85Zm1.386-2.382,1.144-2.014.185-.092a20.706,20.706,0,0,1,4.47,1.718l.037.185-1.255,2.161-.185.037a19.454,19.454,0,0,0-4.34-1.847Z" transform="translate(-4.103 -8.597)" fill="#9b0001"/>
    <path id="パス_294" data-name="パス 294" d="M289.668,385.284l2.29-.757.148.074c.314,1.921,1.311,2.217,4.395,2.217a40.71,40.71,0,0,0,5.948-.462l.166.129.258,2.77-.111.166a59.132,59.132,0,0,1-6.446.3c-5.523,0-6.52-2.235-6.742-4.3Zm2.16-8.958c1.108.111,2.2.166,3.287.166a41.614,41.614,0,0,0,5.707-.462l.129.111.074,2.6-.148.129a33.183,33.183,0,0,1-5.781.462c-1.034,0-2.234-.055-3.343-.166l-.148-.129.091-2.622Z" transform="translate(-3.975 -11.515)" fill="#9b0001"/>
    <path id="パス_295" data-name="パス 295" d="M289.668,406.806l2.29-.757.148.074c.314,1.921,1.311,2.217,4.395,2.217a40.71,40.71,0,0,0,5.948-.462l.166.129.258,2.77-.111.166a59.124,59.124,0,0,1-6.446.3c-5.523,0-6.52-2.234-6.742-4.3Zm2.16-8.958c1.108.111,2.2.166,3.287.166a41.619,41.619,0,0,0,5.707-.462l.129.111.074,2.6-.148.129a33.18,33.18,0,0,1-5.781.462c-1.034,0-2.234-.055-3.343-.166l-.148-.129.091-2.623Z" transform="translate(-3.975 -14.104)" fill="#9b0001"/>
    <path id="パス_296" data-name="パス 296" d="M292.082,425.441a2.046,2.046,0,0,0-.148.683c0,.406.37.463,1.4.463.148-1.035.259-1.793.369-2.568-1.292-.074-2.383-.166-3.379-.3l-.112-.166.148-2.142.148-.111a30.325,30.325,0,0,0,3.565.313c.148-1.015.3-2.05.406-2.973l.166-.092,2.568.3.129.166c-.112.776-.26,1.663-.425,2.567.85-.037,1.681-.128,2.548-.239l.148.111.148,2.179-.166.148c-.942.111-2.013.185-3.1.222-.148.867-.276,1.737-.387,2.549a32.645,32.645,0,0,0,3.8-.48l.167.111.239,2.161-.111.148c-1.589.259-3.048.425-4.4.536a15.084,15.084,0,0,0-.185,2.069c0,.923.424,1.274,1.828,1.274,2.476,0,3.159-.48,3.159-1.237a3.033,3.033,0,0,0-1.052-1.921l2.2-.739a.373.373,0,0,1,.406.111c1.348,1.422,1.569,2.291,1.569,3.14,0,1.847-1.514,3.214-6.261,3.214-3.621,0-4.655-1.459-4.655-3.344a19.618,19.618,0,0,1,.185-2.567c-2.456-.129-3.473-.61-3.473-2.088a3.558,3.558,0,0,1,.333-1.5l.148-.074,1.976-.074Z" transform="translate(-3.97 -16.631)" fill="#9b0001"/>
    <path id="パス_297" data-name="パス 297" d="M302.7,439.468a15.84,15.84,0,0,1,3.842,3.638v.147l-1.9,1.719h-.166a16.527,16.527,0,0,0-3.749-3.842v-.166l1.792-1.478Z" transform="translate(-5.316 -19.147)" fill="#9b0001"/>
    <path id="パス_298" data-name="パス 298" d="M264,296.008a4.1,4.1,0,0,1-.479-.5,6.758,6.758,0,0,1-3.473,1.163c-1.441,0-2.272-1.126-2.272-2.641a7.69,7.69,0,0,1,4.36-6.483c.018-.628.055-1.126.092-1.754-.9.074-1.847.111-2.843.129l-.112-.129-.036-2.161.128-.129c.924,0,1.958-.018,3.01-.092.055-.7.112-1.4.148-2.105l.129-.148,2.475.092.092.166c-.074.573-.129,1.144-.2,1.736a31.822,31.822,0,0,0,4.45-.924l.186.074.11,2.291-.091.166c-1.681.333-3.25.591-4.876.794-.018.259-.056.72-.092,1.238a12.12,12.12,0,0,1,2-.166,4.965,4.965,0,0,0,.166-.739l.129-.092,2.29.536.092.129c-.055.259-.092.425-.129.572a4.9,4.9,0,0,1,3.806,4.617c0,3.51-2.531,5.375-5.856,5.985-.148,0-.222,0-.314-.111l-1.643-1.883c3.972-.665,5.061-2,5.061-4.082a2.438,2.438,0,0,0-1.644-2.568,13.449,13.449,0,0,1-3.066,4.876,3.032,3.032,0,0,0,.351.443l-.037.166-1.737,1.533Zm-3.823-2.6c0,.406.24.591.628.591a3.832,3.832,0,0,0,1.681-.757,13.523,13.523,0,0,1-.369-3.1A4.961,4.961,0,0,0,260.179,293.4Zm5.965-4.765a4.59,4.59,0,0,0-1.569.2,12.148,12.148,0,0,0,.074,2.457A10.079,10.079,0,0,0,266.144,288.638Z" transform="translate(-0.149 -0.101)" fill="#9b0001"/>
    <path id="パス_299" data-name="パス 299" d="M265.548,302.392c-.166.739-.369,1.459-.536,2.124q.969-.194,1.94-.443l.165.074.352,1.626a15.376,15.376,0,0,1,5.707,1.441l.056.185-.758,2.05-.148.074a3.037,3.037,0,0,0-1.5-.314c-1.182,0-2.2.462-2.2,1.293a8.744,8.744,0,0,0,.813,2.752,17.691,17.691,0,0,1,4.026,2.365v.185l-1.552,1.994-.165.018a17.759,17.759,0,0,0-2.161-1.754c-.055,1.5-1.68,2.475-3.768,2.475-2.4,0-3.879-.961-3.879-2.881,0-1.737,1.477-2.956,3.454-2.956a6.3,6.3,0,0,1,1.2.092,6.452,6.452,0,0,1-.406-2.253c.037-1,.979-1.847,2.511-2.309a23.437,23.437,0,0,0-2.511-.259l-.093-.128.463-1.053c-.794.166-1.607.332-2.419.443a32.459,32.459,0,0,1-4.36,8.127l-.185.037-2.179-1.4v-.166a24.3,24.3,0,0,0,3.73-6.242c-.961.092-1.939.148-2.955.166l-.148-.111-.055-2.272.129-.129c1.4-.037,2.716-.129,3.972-.259a27.238,27.238,0,0,0,.7-3.066l.167-.111,2.474.425Zm-.222,12.448c-.629,0-1,.388-1,.7,0,.443.406.739,1.071.739,1.053,0,1.662-.369,1.643-1.108A3.244,3.244,0,0,0,265.326,314.841Z" transform="translate(-0.106 -2.585)" fill="#9b0001"/>
    <path id="パス_300" data-name="パス 300" d="M258.022,338.636c.941-3.509,1.773-6.5,2.6-9.531-.942.111-1.865.2-2.79.259l-.148-.129L257.505,327l.128-.148c1.367-.111,2.567-.24,3.695-.388.276-1.035.572-2.124.867-3.213l.166-.092,2.531.388.129.166c-.241.757-.48,1.588-.683,2.327.738-.129,1.477-.277,2.161-.425l.148.074.166,2.309-.129.148c-1,.185-2.051.369-3.085.536-.979,3.417-1.883,6.8-2.826,10.583l-.166.074-2.512-.554Zm6.168-1.68,1.349-1.7.185-.018c.924,1,1.791,1.256,3.9,1.256a17.922,17.922,0,0,0,3.361-.3l.148.074v2.585l-.11.148a24.016,24.016,0,0,1-3.492.2c-3.232,0-4.266-.757-5.338-2.05Zm1.736-5.6.166-2.272.129-.166c.923-.074,1.828-.111,2.7-.111a25.71,25.71,0,0,1,3.51.222l.128.148-.185,2.291-.165.111c-1.256-.111-2.476-.185-3.787-.185-.757,0-1.533.037-2.364.092Z" transform="translate(-0.116 -5.154)" fill="#9b0001"/>
    <path id="パス_301" data-name="パス 301" d="M264.689,356.745c3.971-.665,5.763-2.567,5.763-4.784,0-2.807-1.552-4.581-3.436-4.968a20.033,20.033,0,0,1-2.844,8.607,3.863,3.863,0,0,1-3.472,2,2.949,2.949,0,0,1-2.6-1.644,5.851,5.851,0,0,1-.9-3.343c0-4.47,3.342-8.09,8.422-8.09,5.041,0,7.74,3.38,7.74,7.48,0,3.361-2.365,5.911-6.28,6.834a.6.6,0,0,1-.591-.185Zm-4.95-4.137a2.725,2.725,0,0,0,.314,1.4c.2.369.462.609.757.609.425,0,.961-.424,1.459-1.422a18.435,18.435,0,0,0,1.828-6.28C261.4,347.381,259.738,349.763,259.738,352.608Z" transform="translate(-0.078 -7.724)" fill="#9b0001"/>
    <path id="パス_302" data-name="パス 302" d="M262.449,374.326c.112.351.038.443-.074.573a1.847,1.847,0,0,1-.5.369,15.139,15.139,0,0,0,2.253.277c1.071,0,1.569-.314,1.569-.867,0-.5-.479-.905-1.754-1.921-1.256-.979-2.068-1.921-2.068-2.807,0-.924.479-1.921,2.383-3.436a9.914,9.914,0,0,1-3.085-1.994l.018-.166,1.57-1.626.2.018a13.179,13.179,0,0,0,5.707,2.161l.074.166-.554,2.345-.148.129a5.711,5.711,0,0,0-.794,0,2.9,2.9,0,0,0-1.736.813,2,2,0,0,0-.794,1.256c0,.369.351.664,1.884,1.736,1.736,1.238,2.216,2.254,2.216,3.786,0,1.9-1.626,2.974-4.063,2.974a14.6,14.6,0,0,1-2.05-.24c-.26-.037-.352-.111-.481-.425l-.775-1.884a29.19,29.19,0,0,1-3.528,2.106l-.185-.055-1.2-2.291.056-.185a29.475,29.475,0,0,0,5.227-2.973Zm6.372-3.344,2.2-.923.2.018a8.617,8.617,0,0,1,2.548,4.433l-.092.166L271.3,375.84l-.166-.074a8.131,8.131,0,0,0-2.346-4.6Z" transform="translate(0 -9.914)" fill="#9b0001"/>
    <path id="パス_303" data-name="パス 303" d="M260.485,387.043l-.479-2.364.11-.166c2.808-.628,5.653-1.072,7.666-1.33a1.665,1.665,0,0,1,1.7,1.607,1.285,1.285,0,0,1-.332.961c-1.5,1.477-2.531,2.419-4.063,3.934a4.565,4.565,0,0,1,2.309-.48,4.451,4.451,0,0,1,4.654,4.765c0,3.361-2.531,5.264-6.8,5.264-2.18,0-4.027-.905-4.027-3.011a2.914,2.914,0,0,1,2.826-2.567,3.865,3.865,0,0,1,3.749,2.733,2.556,2.556,0,0,0,1.422-2.678,2.333,2.333,0,0,0-2.512-2.328c-2.641,0-4.544,1.737-6.5,4.266l-.185.018-1.977-1.588-.019-.2c2.549-2.919,4.876-5.467,7.332-7.9-1.4.295-3.029.683-4.728,1.163Zm3.75,8.773c-.369,0-.7.148-.7.48,0,.388.425.739,1.367.739a2.458,2.458,0,0,0,.591-.055A1.407,1.407,0,0,0,264.235,395.816Z" transform="translate(-0.179 -12.376)" fill="#9b0001"/>
    <path id="パス_304" data-name="パス 304" d="M265.7,413.184a15.261,15.261,0,0,0,1.516-.2c.387-.074.517-.166.332-.536-.351-.684-.83-1.5-1.4-2.4a30.838,30.838,0,0,1-6.556.831l-.148-.129-.424-2.217.11-.129a31.131,31.131,0,0,0,5.486-.684c-.665-.923-1.4-1.9-2.217-2.9l.037-.166,2.382-.887.186.018c.775.979,1.57,2.069,2.345,3.177a21.176,21.176,0,0,0,3.177-1.4l.185.037,1.126,2.253-.074.166a30.272,30.272,0,0,1-2.9,1.219c.794,1.256,1.5,2.419,1.977,3.306a2.556,2.556,0,0,1,.332,1.256A1.463,1.463,0,0,1,269.6,415.1a1.832,1.832,0,0,1-.961-.3,8.932,8.932,0,0,0-2.9-1.016Zm-6.593,2.66,1.977-1.238.166.037c1.035,1.865,3.472,2.4,5.947,2.4.647,0,1.276-.037,2.217-.111l.092.129-.61,2.753-.166.091c-.627.037-1.127.037-1.865.037-3.658,0-6.391-1.348-7.776-3.933Z" transform="translate(-0.298 -14.852)" fill="#9b0001"/>
    <path id="パス_305" data-name="パス 305" d="M271.413,439.059c-1.7.13-3.492.2-5.818.2-4.433,0-6.557-1.349-6.557-4.249,0-1.681,1.386-3.287,3.343-4.673a50.57,50.57,0,0,1-2.7-4.4l.036-.185,2.235-1.163.185.055a49.943,49.943,0,0,0,2.622,4.3,53.012,53.012,0,0,1,5.412-2.328l.184.074,1.091,2.419-.074.148c-1.608.537-3.251,1.164-4.322,1.626a1.19,1.19,0,0,0-.5.924,1.362,1.362,0,0,1-1.33,1.2,1.9,1.9,0,0,1-1.275-.5c-1.441.832-2.088,1.608-2.088,2.475,0,1.238,1.57,1.515,3.75,1.515a54.115,54.115,0,0,0,5.689-.37l.148.111.074,2.642Z" transform="translate(-0.301 -17.358)" fill="#9b0001"/>
  </g>
</svg>
